<svg width="21" height="20" viewBox="0 0 21 20" fill="none" xmlns="http://www.w3.org/2000/svg">
<path fill-rule="evenodd" clip-rule="evenodd" d="M6.08248 5.83329V5.83337H4.58618C4.15353 5.83337 3.79284 6.16447 3.7559 6.59554L2.82732 17.4289C2.78562 17.9154 3.1693 18.3334 3.65761 18.3334H16.842C17.3303 18.3334 17.714 17.9154 17.6723 17.4289L16.7437 6.59554C16.7067 6.16447 16.3461 5.83337 15.9134 5.83337H14.4158V5.83329C14.4158 3.53211 12.5503 1.66663 10.2491 1.66663C7.94796 1.66663 6.08248 3.53211 6.08248 5.83329ZM7.74914 5.83329V5.83337H12.7491V5.83329C12.7491 4.45258 11.6299 3.33329 10.2491 3.33329C8.86843 3.33329 7.74914 4.45258 7.74914 5.83329ZM10.2479 12.5C12.5316 12.5 14.3861 10.6627 14.4142 8.38567C14.4153 8.36835 14.4158 8.35088 14.4158 8.33329C14.4158 7.87305 14.0427 7.49996 13.5825 7.49996C13.1222 7.49996 12.7492 7.87305 12.7492 8.33329V8.33337H12.7479C12.7478 9.71405 11.6285 10.8333 10.2479 10.8333C8.88071 10.8333 7.76988 9.73589 7.74818 8.37392C7.74883 8.36046 7.74915 8.34691 7.74915 8.33329C7.74915 7.87305 7.37606 7.49996 6.91582 7.49996C6.45558 7.49996 6.08248 7.87305 6.08248 8.33329V8.33337H6.08184V8.25906C6.08141 8.28375 6.08119 8.3085 6.08119 8.33329C6.08119 10.6345 7.94667 12.5 10.2479 12.5Z" fill="white"/>
</svg>
