<svg width="14" height="14" viewBox="0 0 14 14" fill="none" xmlns="http://www.w3.org/2000/svg">
    <path
      d="M0.350222 1.45327C0.374736 1.67182 0.47003 1.88312 0.637139 2.05023L5.58689 6.99998L0.637139 11.9497C0.433949 12.1529 0.336411 12.4217 0.34418 12.6874C0.352294 12.9334 0.449314 13.1761 0.637139 13.3639C1.02798 13.7548 1.66086 13.7544 2.05135 13.3639L7.0011 8.41419L11.9508 13.3639C12.3417 13.7548 12.9746 13.7544 13.3651 13.3639C13.7556 12.9734 13.7559 12.3406 13.3651 11.9497L8.41531 6.99998L13.3651 2.05023C13.7556 1.65974 13.7559 1.02686 13.3651 0.63602C12.9742 0.245178 12.3413 0.245523 11.9508 0.63602L7.0011 5.58577L2.05135 0.63602C1.66051 0.245178 1.02764 0.245523 0.637139 0.63602C0.413924 0.859235 0.318285 1.16203 0.350222 1.45327Z"
      fill="white"
    />
  </svg>
