<?xml version="1.0" standalone="no"?>
<!DOCTYPE svg PUBLIC "-//W3C//DTD SVG 20010904//EN"
 "http://www.w3.org/TR/2001/REC-SVG-20010904/DTD/svg10.dtd">
<svg version="1.0" xmlns="http://www.w3.org/2000/svg"
 width="20" height="20" viewBox="0 0 225.000000 225.000000"
 preserveAspectRatio="xMidYMid meet">

<g transform="translate(0.000000,225.000000) scale(0.100000,-0.100000)"
fill="#ffffff" stroke="none">
<path d="M1533 2239 c-325 -54 -554 -386 -489 -710 27 -131 74 -219 170 -315
96 -96 184 -143 315 -170 245 -49 500 66 633 287 179 296 64 697 -244 849
-128 63 -250 82 -385 59z m277 -113 c240 -83 388 -341 336 -584 -45 -213 -223
-382 -435 -412 -73 -10 -99 -9 -196 12 -169 36 -336 203 -373 373 -21 96 -22
122 -12 196 29 207 197 388 403 435 82 18 190 11 277 -20z"/>
<path d="M1407 1873 c-4 -3 -7 -18 -7 -32 0 -19 23 -49 87 -113 l88 -88 -89
-89 c-75 -76 -87 -92 -84 -117 2 -24 8 -30 32 -32 25 -3 41 9 117 84 l89 89
89 -89 c76 -75 92 -87 117 -84 24 2 30 8 32 32 3 25 -9 41 -84 117 l-89 89 89
89 c75 76 87 92 84 117 -2 24 -8 30 -32 32 -25 3 -41 -9 -117 -84 l-89 -89
-88 88 c-64 64 -94 87 -113 87 -14 0 -29 -3 -32 -7z"/>
<path d="M10 2041 c-14 -27 -13 -37 6 -55 12 -12 37 -16 111 -16 110 0 152
-15 182 -64 13 -21 56 -213 130 -587 61 -306 111 -559 111 -562 0 -4 -35 -7
-77 -7 -55 0 -88 -5 -112 -18 -99 -50 -105 -177 -12 -239 l34 -23 826 0 c630
0 830 3 839 12 7 7 12 21 12 33 0 12 -5 26 -12 33 -9 9 -207 12 -829 12 l-818
0 -15 22 c-20 29 -20 34 4 58 20 20 33 20 739 20 630 0 720 2 731 15 11 13 48
166 50 202 0 7 -11 20 -24 28 -39 26 -62 6 -76 -62 -6 -32 -14 -66 -16 -76 -5
-16 -39 -17 -576 -15 l-571 3 -83 410 c-46 226 -83 413 -83 417 -1 4 76 8 169
10 139 2 173 6 180 18 16 25 11 59 -9 70 -12 6 -92 10 -190 10 -169 0 -171 0
-176 23 -3 12 -14 65 -25 117 -24 115 -55 163 -130 203 -48 25 -61 27 -166 27
-102 0 -114 -2 -124 -19z"/>
<path d="M655 346 c-68 -41 -105 -131 -85 -205 29 -107 147 -168 248 -126 75
32 114 90 116 170 1 143 -156 234 -279 161z m158 -91 c32 -33 38 -67 18 -108
-45 -91 -171 -59 -171 43 0 80 96 121 153 65z"/>
<path d="M1515 356 c-162 -75 -129 -320 48 -352 79 -14 172 37 203 113 31 73
4 169 -61 219 -30 23 -50 29 -99 31 -37 2 -73 -2 -91 -11z m140 -98 c15 -14
28 -38 31 -59 11 -66 -70 -128 -128 -98 -64 32 -77 102 -29 150 37 37 88 39
126 7z"/>
</g>
</svg>
