<svg width="36" height="36" viewBox="0 0 36 36" fill="none" xmlns="http://www.w3.org/2000/svg">
<rect width="36" height="36" rx="18" fill="white"/>
<path fill-rule="evenodd" clip-rule="evenodd" d="M21.8093 23.2235C18.6707 25.666 14.1319 25.4456 11.2469 22.5606C8.12291 19.4366 8.12265 14.3711 11.2469 11.2469C14.3711 8.12265 19.4366 8.12291 22.5606 11.2469C25.4456 14.1319 25.666 18.6707 23.2235 21.8093L26.8032 25.389C26.9911 25.5768 27.0892 25.8212 27.0955 26.0663C27.1033 26.3319 27.0061 26.6004 26.8032 26.8032C26.4127 27.1937 25.7799 27.1941 25.389 26.8032L21.8093 23.2235ZM21.1464 12.6611C23.4901 15.0048 23.4895 18.8032 21.1464 21.1464C18.8032 23.4895 15.0048 23.4901 12.6611 21.1464C10.3174 18.8027 10.3179 15.0043 12.6611 12.6611C15.0043 10.3179 18.8027 10.3174 21.1464 12.6611Z" fill="#586A84"/>
</svg>
