<svg width="24" height="24" viewBox="0 0 24 24" fill="none" xmlns="http://www.w3.org/2000/svg">
<rect width="24" height="24" rx="12" fill="white"/>
<path d="M12 6C11.6318 6 11.3333 6.29818 11.3333 6.66667V11.3333H6.66667C6.2985 11.3333 6 11.6315 6 12C6 12.3685 6.2985 12.6667 6.66667 12.6667H11.3333V17.3333C11.3333 17.7018 11.6318 18 12 18C12.3682 18 12.6667 17.7018 12.6667 17.3333V12.6667H17.3333C17.7015 12.6667 18 12.3685 18 12C18 11.7943 17.9071 11.6107 17.7609 11.4883C17.6452 11.3919 17.4961 11.3333 17.3333 11.3333H12.6667V6.66667C12.6667 6.29818 12.3682 6 12 6Z" fill="#586A84"/>
</svg>
