<svg width="20" height="20" viewBox="0 0 20 20" fill="none" xmlns="http://www.w3.org/2000/svg">
<path d="M13.9992 7C13.9992 9.20898 12.2083 11 9.99924 11C7.79013 11 5.99924 9.20898 5.99924 7C5.99924 4.79102 7.79013 3 9.99924 3C12.2083 3 13.9992 4.79102 13.9992 7Z" fill="#586A84"/>
<path fill-rule="evenodd" clip-rule="evenodd" d="M3.19936 17.3316C1.23145 15.5053 0 12.8965 0 10C0 4.47715 4.47715 0 10 0C15.5228 0 20 4.47715 20 10C20 15.5228 15.5228 20 10 20C9.98921 20 9.97843 20 9.96765 19.9999C9.91481 19.9998 9.86208 19.9992 9.80944 19.9982C7.25813 19.9507 4.9406 18.9472 3.19936 17.3316C3.19941 17.3314 3.19931 17.3318 3.19936 17.3316ZM3.5492 16.2759C4.61179 13.7635 7.09964 12 9.99924 12C12.8993 12 15.3874 13.764 16.4497 16.277C18.0279 14.6557 19 12.4414 19 10C19 5.02944 14.9706 1 10 1C5.02944 1 1 5.02944 1 10C1 12.4408 1.97163 14.6547 3.5492 16.2759Z" fill="#586A84"/>
</svg>
